<svg aria-hidden="true" style="position: absolute; width: 0; height: 0; overflow: hidden;" version="1.1" xmlns="http://www.w3.org/2000/svg" xmlns:xlink="http://www.w3.org/1999/xlink">
<defs>
<symbol id="icon-icon-send" viewBox="0 0 32 32">
<path d="M32 0l-32 18 10.227 3.788 15.773-14.788-11.998 16.186 0.010 0.004-0.012-0.004v8.814l5.735-6.691 7.265 2.691 5-28z"></path>
</symbol>
<symbol id="icon-email-black-18dp-1" viewBox="0 0 32 32">
<path d="M26.667 5.333h-21.333c-1.467 0-2.653 1.2-2.653 2.667l-0.013 16c0 1.467 1.2 2.667 2.667 2.667h21.333c1.467 0 2.667-1.2 2.667-2.667v-16c0-1.467-1.2-2.667-2.667-2.667zM26.133 11l-9.427 5.893c-0.427 0.267-0.987 0.267-1.413 0l-9.427-5.893c-0.333-0.213-0.533-0.573-0.533-0.96 0-0.893 0.973-1.427 1.733-0.96l8.933 5.587 8.933-5.587c0.76-0.467 1.733 0.067 1.733 0.96 0 0.387-0.2 0.747-0.533 0.96z"></path>
</symbol>
<symbol id="icon-phone-black-18dp-1" viewBox="0 0 32 32">
<path d="M24.882 19.773l-3.268-0.373c-0.785-0.090-1.557 0.18-2.11 0.733l-2.367 2.367c-3.641-1.853-6.626-4.825-8.478-8.478l2.38-2.38c0.553-0.553 0.823-1.325 0.733-2.11l-0.373-3.242c-0.154-1.299-1.248-2.277-2.56-2.277h-2.226c-1.454 0-2.663 1.209-2.573 2.663 0.682 10.987 9.469 19.761 20.443 20.443 1.454 0.090 2.663-1.119 2.663-2.573v-2.226c0.013-1.299-0.965-2.393-2.264-2.547z"></path>
</symbol>
<symbol id="icon-person-black-18dp-1" viewBox="0 0 32 32">
<path d="M16 16c2.947 0 5.333-2.387 5.333-5.333s-2.387-5.333-5.333-5.333c-2.947 0-5.333 2.387-5.333 5.333s2.387 5.333 5.333 5.333zM16 18.667c-3.56 0-10.667 1.787-10.667 5.333v1.333c0 0.733 0.6 1.333 1.333 1.333h18.667c0.733 0 1.333-0.6 1.333-1.333v-1.333c0-3.547-7.107-5.333-10.667-5.333z"></path>
</symbol>
<symbol id="icon-Vector" viewBox="0 0 42 32">
<path fill="#fff" style="fill: var(--color1, #fff); stroke: var(--color1, #fff)" stroke="#fff" stroke-linejoin="miter" stroke-linecap="butt" stroke-miterlimit="4" stroke-width="0.64" d="M6.263 15.205l-0.22-0.21-3.307 3.132 11.651 11.114 24.477-23.351-3.285-3.134-21.192 20.197-8.124-7.75z"></path>
</symbol>
<symbol id="icon-menu_40px" viewBox="0 0 32 32">
<path d="M6.4 11.733v-2.133h19.2v2.133h-19.2zM6.4 17.067h19.2v-2.133h-19.2v2.133zM6.4 22.4h19.2v-2.133h-19.2v2.133z"></path>
</symbol>
<symbol id="icon-menu_24px" viewBox="0 0 48 32">
<path d="M0 5.333v-5.333h48v5.333h-48zM0 18.667h48v-5.333h-48v5.333zM0 32h48v-5.333h-48v5.333z"></path>
</symbol>
<symbol id="icon-WebStudio" viewBox="0 0 224 32">
<path fill="#2196f3" style="fill: var(--color1, #2196f3)" d="M12.813 1.698h5.174l3.274 9.499 3.315-9.499h5.133l-4.931 13.056 3.638 9.135 8.125-22.272h6.063l-11.48 28.699h-4.81l-5.053-12.045-5.012 12.045h-4.81l-11.439-28.699h5.982l8.165 22.272 3.557-9.135-4.891-13.056zM53.211 30.72c-1.698 0-3.234-0.283-4.608-0.849-1.374-0.593-2.547-1.388-3.517-2.385-0.97-1.024-1.725-2.183-2.264-3.476-0.512-1.32-0.768-2.708-0.768-4.163 0-2.021 0.445-3.867 1.334-5.538 0.916-1.671 2.21-3.005 3.88-4.002 1.698-1.024 3.692-1.536 5.982-1.536 2.317 0 4.298 0.512 5.942 1.536 1.644 0.997 2.897 2.331 3.759 4.002 0.889 1.644 1.334 3.422 1.334 5.336 0 0.323-0.013 0.66-0.040 1.011-0.027 0.323-0.054 0.593-0.081 0.808h-16.371c0.108 1.078 0.418 2.021 0.93 2.829 0.539 0.808 1.213 1.428 2.021 1.859 0.835 0.404 1.725 0.606 2.668 0.606 1.078 0 2.088-0.256 3.032-0.768 0.97-0.539 1.63-1.24 1.981-2.102l4.648 1.293c-0.512 1.078-1.253 2.035-2.223 2.87-0.943 0.835-2.061 1.496-3.355 1.981-1.293 0.458-2.722 0.687-4.285 0.687zM47.673 18.028h11.075c-0.108-1.078-0.418-2.008-0.93-2.789-0.485-0.808-1.132-1.428-1.94-1.859-0.808-0.458-1.711-0.687-2.708-0.687-0.97 0-1.859 0.229-2.668 0.687-0.781 0.431-1.428 1.051-1.94 1.859-0.485 0.781-0.781 1.711-0.889 2.789zM80.844 30.72c-1.617 0-3.059-0.364-4.325-1.091s-2.264-1.725-2.991-2.991v3.678h-4.729v-29.507h5.416v12.045c0.755-1.267 1.738-2.264 2.951-2.991 1.24-0.728 2.681-1.091 4.325-1.091 1.374 0 2.627 0.296 3.759 0.889 1.132 0.566 2.102 1.361 2.91 2.385 0.835 1.024 1.469 2.196 1.9 3.517 0.458 1.32 0.687 2.735 0.687 4.244s-0.256 2.924-0.768 4.244c-0.485 1.32-1.172 2.493-2.061 3.517-0.889 0.997-1.94 1.779-3.153 2.344-1.186 0.539-2.493 0.808-3.921 0.808zM79.349 26.112c0.862 0 1.644-0.162 2.344-0.485 0.728-0.35 1.347-0.808 1.859-1.374 0.539-0.566 0.943-1.226 1.213-1.981 0.296-0.781 0.445-1.59 0.445-2.425 0-1.159-0.243-2.223-0.728-3.193-0.458-0.997-1.105-1.792-1.94-2.385-0.808-0.593-1.765-0.889-2.87-0.889-0.781 0-1.536 0.189-2.264 0.566-0.701 0.35-1.334 0.835-1.9 1.455-0.539 0.62-0.97 1.32-1.293 2.102v5.053c0.162 0.539 0.418 1.024 0.768 1.455 0.377 0.431 0.808 0.808 1.293 1.132 0.485 0.296 0.984 0.539 1.496 0.728 0.539 0.162 1.064 0.243 1.576 0.243z"></path>
<path fill="#212121" style="fill: var(--color2, #212121)" d="M113.254 9.135c-0.189-0.189-0.539-0.445-1.051-0.768-0.485-0.323-1.091-0.633-1.819-0.93-0.701-0.296-1.469-0.552-2.304-0.768-0.835-0.243-1.684-0.364-2.547-0.364-1.509 0-2.654 0.283-3.436 0.849-0.755 0.566-1.132 1.361-1.132 2.385 0 0.781 0.243 1.401 0.728 1.859s1.213 0.849 2.183 1.172 2.183 0.674 3.638 1.051c1.886 0.458 3.517 1.024 4.891 1.698 1.401 0.647 2.466 1.509 3.193 2.587 0.754 1.051 1.132 2.452 1.132 4.204 0 1.536-0.283 2.856-0.849 3.961-0.566 1.078-1.347 1.954-2.344 2.627s-2.129 1.172-3.395 1.496c-1.267 0.296-2.614 0.445-4.042 0.445s-2.856-0.148-4.285-0.445c-1.428-0.296-2.803-0.714-4.123-1.253-1.32-0.566-2.533-1.24-3.638-2.021l2.466-4.81c0.243 0.243 0.674 0.566 1.293 0.97 0.62 0.377 1.374 0.768 2.264 1.172 0.889 0.377 1.86 0.701 2.91 0.97s2.115 0.404 3.193 0.404c1.509 0 2.654-0.256 3.436-0.768s1.172-1.24 1.172-2.183c0-0.862-0.31-1.536-0.93-2.021s-1.482-0.903-2.587-1.253c-1.105-0.377-2.412-0.781-3.921-1.213-1.805-0.512-3.315-1.078-4.527-1.698-1.213-0.647-2.115-1.455-2.708-2.425s-0.889-2.183-0.889-3.638c0-1.967 0.458-3.611 1.374-4.931 0.943-1.347 2.21-2.358 3.8-3.032 1.59-0.701 3.355-1.051 5.295-1.051 1.348 0 2.614 0.148 3.8 0.445 1.213 0.296 2.344 0.687 3.395 1.172s1.994 1.011 2.829 1.576l-2.466 4.527zM133.85 29.224c-0.458 0.189-1.011 0.404-1.657 0.647s-1.347 0.431-2.102 0.566c-0.728 0.162-1.469 0.243-2.223 0.243-0.997 0-1.913-0.175-2.749-0.525s-1.509-0.903-2.021-1.657c-0.485-0.781-0.728-1.792-0.728-3.032v-12.167h-2.789v-4.163h2.789v-6.872h5.416v6.872h4.446v4.163h-4.446v10.348c0.027 0.728 0.229 1.253 0.606 1.576s0.849 0.485 1.415 0.485c0.566 0 1.118-0.094 1.657-0.283s0.97-0.35 1.293-0.485l1.091 4.285zM137.682 22.393v-13.258h5.416v12.086c0 1.617 0.296 2.843 0.889 3.678 0.593 0.808 1.469 1.213 2.627 1.213 0.701 0 1.388-0.135 2.061-0.404 0.701-0.296 1.334-0.728 1.9-1.293 0.593-0.566 1.091-1.28 1.496-2.142v-13.137h5.416v15.117c0 0.566 0.094 0.97 0.283 1.213 0.216 0.243 0.552 0.391 1.011 0.445v4.406c-0.539 0.081-0.997 0.135-1.374 0.162-0.35 0.054-0.674 0.081-0.97 0.081-0.97 0-1.765-0.216-2.385-0.647-0.593-0.458-0.943-1.078-1.051-1.859l-0.121-1.698c-0.943 1.428-2.156 2.52-3.638 3.274-1.482 0.728-3.112 1.091-4.891 1.091-2.183 0-3.84-0.701-4.972-2.102-1.132-1.428-1.698-3.503-1.698-6.225zM162.79 19.725c0-2.048 0.404-3.894 1.213-5.538 0.808-1.671 1.927-2.991 3.355-3.961s3.059-1.455 4.892-1.455c1.563 0 2.964 0.391 4.204 1.172 1.267 0.755 2.25 1.725 2.951 2.91v-12.045h5.416v23.444c0 0.566 0.094 0.97 0.283 1.213s0.512 0.391 0.97 0.445v4.406c-0.943 0.189-1.711 0.283-2.304 0.283-0.97 0-1.779-0.243-2.425-0.728-0.62-0.485-0.97-1.118-1.051-1.9l-0.081-1.334c-0.781 1.32-1.846 2.331-3.193 3.032-1.32 0.701-2.708 1.051-4.163 1.051s-2.803-0.283-4.042-0.849c-1.213-0.566-2.278-1.347-3.194-2.344-0.889-0.997-1.59-2.156-2.102-3.476-0.485-1.347-0.728-2.789-0.728-4.325zM179.404 22.555v-5.053c-0.269-0.781-0.701-1.482-1.293-2.102s-1.253-1.105-1.981-1.455c-0.728-0.377-1.455-0.566-2.183-0.566-0.835 0-1.59 0.175-2.264 0.525s-1.267 0.822-1.779 1.415c-0.485 0.593-0.862 1.28-1.132 2.061-0.243 0.781-0.364 1.603-0.364 2.466s0.135 1.684 0.405 2.466c0.296 0.755 0.714 1.415 1.253 1.981s1.159 1.011 1.859 1.334c0.728 0.323 1.509 0.485 2.344 0.485 0.512 0 1.024-0.081 1.536-0.243 0.539-0.189 1.037-0.431 1.496-0.728 0.485-0.323 0.903-0.701 1.253-1.132 0.377-0.458 0.66-0.943 0.849-1.455zM191.348 30.316v-21.181h5.416v21.181h-5.416zM191.348 6.184v-5.376h5.416v5.376h-5.416zM212.647 30.72c-1.725 0-3.274-0.283-4.648-0.849-1.374-0.593-2.547-1.401-3.517-2.425-0.943-1.024-1.671-2.196-2.183-3.517s-0.768-2.708-0.768-4.163c0-1.482 0.256-2.883 0.768-4.204s1.24-2.493 2.183-3.517c0.97-1.024 2.142-1.819 3.517-2.385 1.374-0.593 2.924-0.889 4.648-0.889s3.261 0.296 4.608 0.889c1.374 0.566 2.547 1.361 3.517 2.385s1.698 2.196 2.183 3.517c0.512 1.32 0.768 2.722 0.768 4.204 0 1.455-0.256 2.843-0.768 4.163-0.485 1.32-1.213 2.493-2.183 3.517-0.943 1.024-2.102 1.832-3.476 2.425-1.374 0.566-2.924 0.849-4.648 0.849zM207.109 19.766c0 1.24 0.243 2.344 0.728 3.315 0.485 0.943 1.145 1.684 1.981 2.223s1.779 0.808 2.829 0.808c1.024 0 1.954-0.269 2.789-0.808 0.835-0.566 1.496-1.32 1.981-2.264 0.512-0.97 0.768-2.075 0.768-3.315 0-1.213-0.256-2.304-0.768-3.274-0.485-0.97-1.145-1.725-1.981-2.264s-1.765-0.808-2.789-0.808c-1.051 0-1.994 0.283-2.829 0.849-0.835 0.539-1.496 1.293-1.981 2.264-0.485 0.943-0.728 2.035-0.728 3.274z"></path>
</symbol>
</defs>
</svg>
